<svg version="1.1" xmlns="http://www.w3.org/2000/svg" xmlns:xlink="http://www.w3.org/1999/xlink" width="400" height="400"
     viewBox="0, 0, 400,400">
    <g>
        <path
          d="M181.656 0.813 C 180.851 1.483,180.101 1.600,176.599 1.600 C 173.357 1.600,172.119 1.767,170.744 2.391 C 169.579 2.920,168.120 3.185,166.349 3.191 C 164.891 3.196,163.051 3.470,162.262 3.800 C 161.472 4.130,160.014 4.400,159.021 4.400 C 158.028 4.400,156.538 4.647,155.708 4.949 C 154.879 5.251,153.210 5.706,152.000 5.960 C 147.528 6.899,146.565 7.177,145.015 7.980 C 144.144 8.431,142.935 8.800,142.329 8.800 C 141.723 8.800,140.636 9.060,139.914 9.379 C 139.191 9.697,137.250 10.339,135.600 10.806 C 133.950 11.272,131.479 12.182,130.108 12.827 C 128.738 13.472,127.262 14.000,126.827 14.000 C 126.393 14.000,124.671 14.720,123.000 15.600 C 121.329 16.480,119.611 17.200,119.181 17.200 C 118.752 17.200,117.545 17.644,116.500 18.187 C 114.605 19.171,108.434 22.261,105.400 23.746 C 104.520 24.177,103.440 24.848,103.000 25.239 C 102.560 25.629,100.719 26.689,98.908 27.595 C 97.098 28.500,95.478 29.466,95.308 29.741 C 95.139 30.016,93.650 31.109,92.000 32.169 C 90.350 33.230,88.550 34.435,88.000 34.848 C 87.450 35.260,86.158 36.045,85.128 36.591 C 84.099 37.138,83.140 37.774,82.997 38.004 C 82.855 38.235,81.497 39.241,79.981 40.240 C 78.464 41.240,76.803 42.556,76.290 43.166 C 75.777 43.776,74.348 44.921,73.114 45.710 C 70.966 47.084,70.064 48.333,70.598 49.196 C 70.758 49.456,76.125 49.600,85.650 49.600 C 95.947 49.600,100.719 49.739,101.326 50.056 C 101.807 50.306,108.176 56.464,115.479 63.739 C 122.783 71.015,129.105 77.095,129.528 77.252 C 130.240 77.515,135.856 75.246,137.281 74.119 C 138.391 73.241,146.362 69.600,147.175 69.600 C 147.648 69.600,149.199 68.971,150.623 68.202 C 153.608 66.590,157.409 65.204,160.000 64.782 C 160.990 64.621,163.060 64.090,164.600 63.602 C 166.140 63.114,168.669 62.598,170.219 62.457 C 171.835 62.310,173.493 61.901,174.105 61.500 C 174.911 60.971,176.029 60.797,178.686 60.786 C 181.319 60.776,182.601 60.579,183.800 60.000 C 186.293 58.796,215.006 58.789,217.656 59.991 C 218.965 60.585,220.282 60.785,222.937 60.791 C 225.860 60.798,226.650 60.939,227.491 61.600 C 228.265 62.209,229.114 62.400,231.040 62.400 C 232.433 62.400,234.164 62.651,234.886 62.957 C 236.744 63.745,240.520 64.800,241.484 64.800 C 242.867 64.800,248.068 66.679,250.800 68.167 C 252.230 68.945,253.799 69.586,254.288 69.591 C 255.128 69.600,256.543 70.189,260.200 72.056 C 269.239 76.670,271.285 77.600,272.391 77.600 C 273.504 77.600,275.092 76.158,286.438 64.837 C 293.473 57.817,299.520 51.832,299.876 51.537 C 300.381 51.117,303.834 50.957,315.761 50.800 L 331.000 50.600 330.904 49.694 C 330.786 48.590,323.187 41.158,321.656 40.649 C 321.075 40.456,320.228 39.961,319.774 39.549 C 319.320 39.137,318.722 38.800,318.445 38.800 C 318.167 38.800,316.919 37.832,315.670 36.648 C 314.422 35.465,312.410 34.007,311.200 33.408 C 308.634 32.138,305.252 29.944,303.042 28.114 C 302.185 27.404,300.835 26.616,300.042 26.363 C 299.249 26.110,298.060 25.587,297.400 25.200 C 296.001 24.381,288.347 20.549,282.600 17.791 C 280.400 16.735,278.139 15.553,277.576 15.162 C 277.012 14.772,276.022 14.336,275.376 14.193 C 274.090 13.909,271.002 12.977,268.800 12.208 C 268.030 11.939,266.410 11.400,265.200 11.011 C 263.990 10.621,262.486 9.939,261.858 9.494 C 261.230 9.050,259.935 8.627,258.981 8.556 C 258.026 8.484,256.563 8.060,255.729 7.613 C 254.894 7.166,253.826 6.800,253.355 6.800 C 252.883 6.800,251.851 6.530,251.062 6.200 C 250.272 5.870,248.743 5.600,247.663 5.600 C 246.584 5.600,244.935 5.330,244.000 5.000 C 243.065 4.670,241.863 4.400,241.330 4.400 C 240.797 4.400,239.784 4.097,239.080 3.726 C 238.216 3.270,236.977 3.073,235.266 3.117 C 233.625 3.159,232.215 2.946,231.266 2.514 C 230.271 2.060,228.216 1.774,224.867 1.623 C 220.799 1.439,219.845 1.277,219.423 0.700 C 218.584 -0.449,183.043 -0.343,181.656 0.813 M27.753 100.974 C 26.760 101.406,26.098 102.322,24.511 105.459 C 23.414 107.626,22.222 109.940,21.863 110.600 C 20.162 113.724,16.095 122.367,15.831 123.417 C 15.669 124.066,14.920 125.877,14.168 127.440 C 13.415 129.004,12.800 130.517,12.800 130.802 C 12.800 131.431,10.155 139.682,9.366 141.514 C 9.055 142.236,8.800 143.267,8.800 143.806 C 8.800 144.679,7.743 147.759,6.155 151.514 C 5.850 152.236,5.594 153.856,5.586 155.114 C 5.578 156.371,5.314 157.850,5.000 158.400 C 4.686 158.950,4.422 160.441,4.414 161.714 C 4.405 163.184,4.156 164.401,3.730 165.051 C 3.243 165.794,3.080 166.828,3.134 168.839 C 3.185 170.746,2.994 172.071,2.518 173.103 C 1.983 174.264,1.780 176.155,1.614 181.533 C 1.429 187.520,1.304 188.536,0.700 188.977 C -0.449 189.816,-0.358 208.842,0.800 210.000 C 1.539 210.739,1.600 211.333,1.600 217.756 C 1.600 223.833,1.700 224.933,2.391 226.456 C 2.944 227.674,3.189 229.105,3.205 231.200 C 3.219 233.028,3.452 234.591,3.800 235.200 C 4.114 235.750,4.378 237.157,4.386 238.326 C 4.394 239.496,4.620 240.846,4.890 241.326 C 5.159 241.807,5.499 243.460,5.644 245.000 C 5.908 247.801,6.760 250.860,7.835 252.867 C 8.149 253.454,8.520 254.804,8.659 255.867 C 8.797 256.930,9.092 258.152,9.313 258.582 C 9.534 259.011,9.945 260.181,10.225 261.182 C 10.506 262.182,11.200 264.241,11.768 265.759 C 12.335 267.276,12.800 268.829,12.800 269.211 C 12.800 269.592,13.427 271.140,14.193 272.652 C 14.958 274.163,15.587 275.670,15.590 276.000 C 15.595 276.559,20.572 287.370,21.851 289.600 C 22.166 290.150,23.314 292.341,24.400 294.469 C 25.487 296.597,26.782 298.622,27.277 298.969 C 28.362 299.729,49.507 299.920,51.434 299.187 C 52.032 298.960,58.253 293.040,65.260 286.033 C 79.727 271.565,79.471 271.953,76.759 268.555 C 75.206 266.611,72.711 261.698,71.599 258.397 C 71.134 257.017,70.157 254.699,69.427 253.244 C 68.697 251.790,67.967 249.970,67.804 249.200 C 67.641 248.430,67.331 247.580,67.114 247.311 C 66.898 247.043,66.565 246.233,66.374 245.511 C 66.184 244.790,65.482 242.587,64.814 240.615 C 64.146 238.643,63.600 236.522,63.600 235.902 C 63.600 235.282,63.330 234.128,63.000 233.338 C 62.670 232.549,62.399 230.889,62.397 229.651 C 62.396 228.078,62.155 227.039,61.600 226.200 C 60.994 225.285,60.805 224.321,60.803 222.144 C 60.801 220.157,60.559 218.757,60.009 217.544 C 58.789 214.857,58.789 185.143,60.009 182.456 C 60.551 181.261,60.800 179.848,60.800 177.966 C 60.800 175.925,61.005 174.883,61.599 173.910 C 62.130 173.039,62.398 171.893,62.399 170.487 C 62.399 169.325,62.670 167.728,63.000 166.938 C 63.330 166.149,63.600 164.967,63.600 164.313 C 63.600 162.995,65.021 158.033,65.858 156.429 C 66.153 155.863,66.396 155.123,66.398 154.785 C 66.399 154.446,66.760 153.463,67.200 152.600 C 67.640 151.737,68.000 150.704,68.000 150.305 C 68.000 149.906,68.620 148.350,69.377 146.846 C 70.134 145.342,71.129 142.998,71.587 141.637 C 72.512 138.893,75.170 133.710,76.645 131.777 C 78.795 128.958,78.689 128.812,63.531 113.754 C 51.788 102.088,50.453 100.885,49.000 100.658 C 45.746 100.151,29.075 100.399,27.753 100.974 M351.342 102.080 C 346.220 106.644,324.000 129.442,324.000 130.133 C 324.000 130.552,324.567 131.540,325.261 132.330 C 326.582 133.835,328.863 138.466,329.566 141.071 C 329.793 141.912,330.795 144.185,331.792 146.122 C 332.790 148.059,333.771 150.309,333.972 151.122 C 334.173 151.935,334.771 153.860,335.300 155.400 C 336.772 159.684,337.537 162.429,337.789 164.328 C 337.915 165.279,338.263 166.449,338.562 166.928 C 338.860 167.408,339.214 168.930,339.347 170.310 C 339.481 171.691,339.862 173.347,340.195 173.990 C 340.561 174.698,340.800 176.235,340.800 177.880 C 340.800 179.631,341.085 181.350,341.600 182.704 C 342.701 185.601,342.807 214.291,341.727 217.000 C 341.376 217.880,340.977 220.130,340.840 222.000 C 340.703 223.870,340.366 225.797,340.091 226.282 C 339.816 226.766,339.482 228.296,339.348 229.682 C 339.214 231.067,338.856 232.598,338.553 233.085 C 338.249 233.572,337.835 235.102,337.633 236.485 C 337.148 239.792,333.535 250.741,332.067 253.348 C 331.432 254.477,330.417 256.840,329.811 258.600 C 328.350 262.844,326.601 266.263,324.949 268.101 C 323.353 269.878,323.247 271.124,324.563 272.669 C 326.589 275.049,350.406 298.576,351.280 299.061 C 353.152 300.100,372.542 299.789,373.771 298.700 C 374.794 297.793,386.000 275.938,386.000 274.849 C 386.000 274.527,386.523 273.079,387.162 271.632 C 387.801 270.184,388.860 267.380,389.516 265.400 C 390.871 261.304,391.413 259.782,392.461 257.126 C 392.867 256.095,393.200 254.694,393.200 254.013 C 393.200 253.332,393.470 252.128,393.800 251.338 C 394.130 250.549,394.400 249.407,394.400 248.801 C 394.400 248.196,394.670 246.935,395.000 246.000 C 395.330 245.065,395.600 243.775,395.600 243.134 C 395.600 242.493,395.960 241.262,396.400 240.400 C 396.972 239.278,397.200 238.042,397.200 236.060 C 397.200 234.152,397.447 232.744,397.991 231.544 C 398.620 230.157,398.784 228.916,398.791 225.487 C 398.798 222.029,398.919 221.129,399.400 220.945 C 399.923 220.744,400.000 217.978,400.000 199.406 C 400.000 180.954,399.920 178.031,399.400 177.600 C 398.953 177.229,398.798 176.222,398.791 173.651 C 398.785 171.081,398.580 169.755,397.991 168.456 C 397.466 167.299,397.200 165.849,397.200 164.143 C 397.200 162.635,396.929 160.960,396.545 160.087 C 396.184 159.269,395.748 157.790,395.574 156.800 C 395.401 155.810,395.053 154.190,394.803 153.200 C 394.552 152.210,394.165 150.680,393.944 149.800 C 393.722 148.920,393.393 147.163,393.213 145.896 C 393.033 144.628,392.597 143.149,392.243 142.610 C 391.889 142.070,391.600 141.241,391.600 140.769 C 391.600 140.296,391.243 139.254,390.807 138.454 C 390.371 137.655,389.555 135.385,388.994 133.412 C 388.434 131.438,387.640 129.255,387.230 128.561 C 386.820 127.867,386.368 126.692,386.224 125.949 C 386.080 125.207,384.994 122.620,383.811 120.200 C 382.627 117.780,381.348 114.828,380.968 113.641 C 379.983 110.561,376.662 104.513,374.796 102.400 L 373.207 100.600 363.245 100.475 L 353.283 100.350 351.342 102.080 M263.035 326.588 C 258.912 328.671,254.877 330.495,254.069 330.642 C 253.261 330.789,251.866 331.313,250.968 331.808 C 250.071 332.303,248.991 332.897,248.568 333.129 C 247.325 333.811,243.940 334.875,242.000 335.193 C 239.202 335.652,236.311 336.422,235.068 337.038 C 234.445 337.347,232.825 337.601,231.468 337.601 C 229.708 337.603,228.624 337.832,227.690 338.401 C 226.666 339.026,225.664 339.202,223.090 339.209 C 220.681 339.215,219.333 339.429,218.056 340.009 C 215.371 341.227,186.229 341.227,183.544 340.009 C 182.251 339.422,180.919 339.215,178.389 339.209 C 175.901 339.202,174.727 339.024,174.051 338.551 C 173.527 338.184,171.968 337.814,170.462 337.701 C 168.998 337.590,166.450 337.057,164.800 336.517 C 163.150 335.977,160.900 335.383,159.800 335.199 C 157.861 334.873,154.423 333.853,153.200 333.240 C 152.870 333.074,151.700 332.477,150.600 331.913 C 149.500 331.348,147.393 330.498,145.917 330.025 C 144.442 329.551,141.922 328.456,140.317 327.591 C 133.984 324.179,131.920 323.200,131.062 323.200 C 130.421 323.200,126.163 327.185,116.049 337.247 L 101.931 351.294 99.953 351.031 C 98.472 350.835,74.095 350.620,70.900 350.776 C 69.919 350.823,70.424 351.977,71.900 353.062 C 72.725 353.668,74.570 355.271,76.000 356.623 C 77.431 357.976,79.051 359.222,79.600 359.393 C 80.150 359.563,81.447 360.490,82.483 361.451 C 83.518 362.413,84.540 363.200,84.752 363.200 C 84.965 363.200,85.689 363.663,86.362 364.229 C 87.035 364.796,88.278 365.651,89.124 366.129 C 91.746 367.612,94.136 369.258,95.701 370.658 C 96.527 371.396,97.373 372.000,97.581 372.000 C 98.529 372.000,109.146 377.455,110.905 378.846 C 112.062 379.760,113.310 380.402,113.936 380.406 C 115.104 380.412,122.628 383.892,124.275 385.188 C 124.843 385.634,125.676 386.000,126.126 386.000 C 126.983 386.000,128.356 386.423,137.200 389.414 C 140.170 390.418,143.167 391.388,143.859 391.569 C 144.552 391.749,145.537 392.190,146.048 392.549 C 146.564 392.910,147.785 393.206,148.789 393.214 C 149.785 393.222,151.050 393.486,151.600 393.800 C 152.150 394.114,153.162 394.378,153.850 394.386 C 154.537 394.394,155.865 394.670,156.800 395.000 C 157.735 395.330,159.249 395.600,160.164 395.600 C 161.079 395.600,162.852 395.960,164.104 396.400 C 165.356 396.840,167.201 397.200,168.204 397.200 C 169.268 397.200,170.473 397.492,171.096 397.900 C 171.967 398.471,173.299 398.626,178.311 398.743 C 183.094 398.855,184.506 399.010,184.672 399.443 C 185.016 400.340,215.848 400.262,216.843 399.361 C 217.410 398.848,218.451 398.732,222.177 398.771 C 225.922 398.810,227.169 398.671,228.703 398.042 C 229.746 397.615,231.950 397.174,233.600 397.063 C 235.250 396.952,237.269 396.577,238.087 396.231 C 238.905 395.884,240.329 395.600,241.252 395.600 C 242.175 395.600,243.846 395.346,244.965 395.035 C 249.262 393.842,250.671 393.521,252.800 393.254 C 254.010 393.103,255.540 392.677,256.200 392.308 C 257.526 391.567,265.610 388.801,266.462 388.798 C 266.758 388.796,267.483 388.543,268.073 388.235 C 268.663 387.927,269.743 387.549,270.473 387.394 C 271.203 387.239,273.049 386.502,274.576 385.756 C 276.103 385.010,277.633 384.400,277.976 384.400 C 278.914 384.400,299.018 374.224,300.433 373.033 C 301.109 372.465,301.878 372.000,302.142 372.000 C 302.407 372.000,304.111 371.010,305.929 369.800 C 307.746 368.590,309.400 367.600,309.603 367.600 C 309.806 367.600,310.563 367.085,311.286 366.455 C 312.009 365.826,313.230 364.991,314.000 364.600 C 314.770 364.209,315.991 363.374,316.714 362.745 C 317.437 362.115,318.195 361.600,318.400 361.600 C 318.604 361.600,320.172 360.340,321.884 358.800 C 323.597 357.260,325.217 356.000,325.485 356.000 C 326.224 356.000,329.600 352.314,329.600 351.507 C 329.600 350.619,330.333 350.660,316.600 350.784 C 310.220 350.842,303.920 350.759,302.600 350.600 L 300.200 350.310 286.381 336.555 C 275.497 325.721,272.347 322.800,271.547 322.800 C 270.988 322.800,267.158 324.504,263.035 326.588 "
          stroke="none" fill="#ffffff"/>
    </g>
</svg>
